<svg width="1500" height="500" viewBox="0 0 1500 500" fill="none" xmlns="http://www.w3.org/2000/svg">
<g clip-path="url(#clip0_229_234)">
<rect width="1500" height="500" fill="white"/>
<rect x="-3.22461" y="-65" width="1610.35" height="630.721" fill="url(#paint0_linear_229_234)" fill-opacity="0.15"/>
<g filter="url(#filter0_d_229_234)">
<circle cx="891.276" cy="101.488" r="69.1948" fill="url(#paint1_linear_229_234)" fill-opacity="0.04" shape-rendering="crispEdges"/>
</g>
<g filter="url(#filter1_d_229_234)">
<circle cx="15.2274" cy="46.5497" r="87.2274" fill="url(#paint2_linear_229_234)" fill-opacity="0.08" shape-rendering="crispEdges"/>
</g>
<g filter="url(#filter2_d_229_234)">
<circle cx="89.8746" cy="538.882" r="42.775" fill="url(#paint3_linear_229_234)" fill-opacity="0.15" shape-rendering="crispEdges"/>
</g>
<g filter="url(#filter3_d_229_234)">
<circle cx="412.5" cy="374.5" r="49.5" fill="url(#paint4_linear_229_234)" fill-opacity="0.06" shape-rendering="crispEdges"/>
</g>
<g filter="url(#filter4_d_229_234)">
<circle cx="1481.5" cy="325.5" r="59.5" fill="url(#paint5_linear_229_234)" fill-opacity="0.06" shape-rendering="crispEdges"/>
</g>
<g filter="url(#filter5_d_229_234)">
<circle cx="102.035" cy="335.492" r="14.6777" fill="url(#paint6_linear_229_234)" fill-opacity="0.15" shape-rendering="crispEdges"/>
</g>
<g filter="url(#filter6_d_229_234)">
<circle cx="1120.5" cy="534.5" r="63.5" fill="url(#paint7_linear_229_234)" fill-opacity="0.15" shape-rendering="crispEdges"/>
</g>
<g filter="url(#filter7_d_229_234)">
<circle cx="419.5" cy="6.5" r="21.5" fill="url(#paint8_linear_229_234)" fill-opacity="0.15" shape-rendering="crispEdges"/>
</g>
<g filter="url(#filter8_d_229_234)">
<circle cx="1607.13" cy="28.0986" r="57.872" fill="url(#paint9_linear_229_234)" fill-opacity="0.15" shape-rendering="crispEdges"/>
</g>
<path d="M645.642 225.552C641.716 225.552 638.445 227.035 635.829 230C633.212 232.879 631.903 236.281 631.903 240.206V254.206L682.48 254.33C684.103 254.333 685.417 255.65 685.417 257.273V257.273C685.417 258.902 684.095 260.221 682.466 260.217L631.903 260.094V276.378C631.903 278.079 630.525 279.458 628.824 279.458V279.458C627.127 279.458 625.749 278.085 625.744 276.388L625.623 239.552C625.623 233.795 627.498 229.041 631.249 225.29C635.087 221.539 639.885 219.664 645.642 219.664H682.866C684.491 219.664 685.81 220.982 685.81 222.608V222.608C685.81 224.234 684.491 225.552 682.866 225.552H645.642Z" fill="black"/>
<path d="M767.964 279.327C766.265 279.327 764.889 277.951 764.889 276.252V244.262H707.45V276.252C707.45 277.951 706.073 279.327 704.375 279.327V279.327C702.677 279.327 701.301 277.951 701.301 276.252V222.608C701.301 220.91 702.677 219.533 704.375 219.533V219.533C706.073 219.533 707.45 220.91 707.45 222.608V238.374H764.889V222.608C764.889 220.91 766.265 219.533 767.964 219.533V219.533C769.662 219.533 771.038 220.91 771.038 222.608V276.252C771.038 277.951 769.662 279.327 767.964 279.327V279.327Z" fill="black"/>
<path d="M804.232 279.458C798.388 279.458 793.591 277.583 789.84 273.832C786.089 270.081 784.214 265.327 784.214 259.57V239.552C784.214 233.795 786.089 229.041 789.84 225.29C793.591 221.539 798.388 219.664 804.232 219.664H841.457C843.082 219.664 844.4 220.982 844.4 222.608V222.608C844.4 224.234 843.082 225.552 841.457 225.552H804.232C800.307 225.552 797.036 227.035 794.419 230C791.803 232.879 790.494 236.281 790.494 240.206V247.664L841.071 247.787C842.694 247.791 844.008 249.108 844.008 250.731V250.731C844.008 252.36 842.685 253.679 841.057 253.675L790.494 253.552V258.916C790.494 262.841 791.803 266.287 794.419 269.252C797.036 272.131 800.307 273.57 804.232 273.57H841.457C843.082 273.57 844.4 274.888 844.4 276.514V276.514C844.4 278.14 843.082 279.458 841.457 279.458H804.232Z" fill="black"/>
<path d="M926.106 276.252C926.106 277.951 924.729 279.327 923.031 279.327V279.327C921.333 279.327 919.957 277.951 919.957 276.252V240.075C919.957 236.237 918.561 233.01 915.77 230.393C912.978 227.776 909.664 226.468 905.826 226.468H876.648C872.81 226.468 869.496 227.776 866.705 230.393C863.913 233.01 862.518 236.237 862.518 240.075V276.252C862.518 277.951 861.141 279.327 859.443 279.327V279.327C857.745 279.327 856.368 277.951 856.368 276.252V240.075C856.368 234.405 858.287 229.739 862.125 226.075C866.05 222.412 870.891 220.58 876.648 220.58H905.826C911.583 220.58 916.38 222.543 920.218 226.468C924.143 230.393 926.106 235.234 926.106 240.991V276.252Z" fill="black"/>
<path d="M945.427 279.327C943.44 279.327 941.829 277.716 941.829 275.729V223.131C941.829 221.144 943.44 219.533 945.427 219.533V219.533C947.415 219.533 949.025 221.144 949.025 223.131V275.729C949.025 277.716 947.415 279.327 945.427 279.327V279.327Z" fill="black"/>
<path d="M1030.02 276.263C1029.97 277.969 1028.58 279.327 1026.87 279.327H1026.71C1025.92 279.327 1025.16 279.046 1024.56 278.533L996.047 254.206L967.539 278.533C966.938 279.046 966.175 279.327 965.385 279.327H965.225C963.518 279.327 962.121 277.969 962.072 276.263V276.263C962.045 275.305 962.455 274.387 963.186 273.767L991.206 250.019L963.181 226.141C962.453 225.52 962.045 224.603 962.072 223.647V223.647C962.121 221.939 963.52 220.58 965.228 220.58H965.385C966.175 220.58 966.938 220.862 967.539 221.374L996.047 245.701L1024.56 221.374C1025.16 220.862 1025.92 220.58 1026.71 220.58H1026.87C1028.58 220.58 1029.97 221.939 1030.02 223.647V223.647C1030.05 224.603 1029.64 225.52 1028.91 226.141L1000.89 250.019L1028.91 273.767C1029.64 274.387 1030.05 275.305 1030.02 276.263V276.263Z" fill="black"/>
<path fill-rule="evenodd" clip-rule="evenodd" d="M471.54 212.077C470.649 212.347 470 213.176 470 214.156V248.942V282.242C470 283.442 470.973 284.415 472.173 284.415C473.373 284.415 474.345 283.442 474.345 282.242V248.942V239.238L523.266 272.98L523.44 314.731C523.444 315.717 524.103 316.546 525.004 316.808C525.626 317.088 526.37 317.071 527.002 316.697L582.234 284.019C583.266 283.408 583.608 282.076 582.997 281.043C582.386 280.01 581.054 279.668 580.021 280.279L527.77 311.194L527.67 287.256L581.928 254.492C582.956 253.872 583.285 252.536 582.665 251.509C582.045 250.482 580.71 250.152 579.682 250.772L527.649 282.193L527.523 251.996L580.867 219.73C581.584 219.296 581.961 218.514 581.911 217.732C581.956 216.955 581.58 216.18 580.868 215.748L525.743 182.355C525.563 182.238 525.367 182.148 525.163 182.088C524.751 181.967 524.304 181.968 523.881 182.106C523.716 182.16 523.557 182.233 523.408 182.325L471.54 212.077ZM524.521 186.695L575.765 217.738L524.223 248.914C523.509 249.346 523.132 250.124 523.178 250.903C523.175 250.951 523.174 251 523.174 251.049L523.243 267.687L475.073 234.461C474.846 234.304 474.599 234.197 474.345 234.136V215.477L491.621 205.567L523.656 225.442C524.676 226.075 526.015 225.761 526.647 224.741C527.28 223.722 526.966 222.382 525.947 221.75L495.904 203.111L524.521 186.695Z" fill="black"/>
<path d="M471.54 212.077L471.831 213.033L471.939 213L472.038 212.944L471.54 212.077ZM474.345 239.238L474.913 238.415L473.345 237.333V239.238H474.345ZM523.266 272.98L524.266 272.976L524.263 272.454L523.833 272.157L523.266 272.98ZM523.44 314.731L522.44 314.735L522.44 314.735L523.44 314.731ZM525.004 316.808L525.413 315.896L525.35 315.868L525.283 315.848L525.004 316.808ZM527.002 316.697L527.511 317.558L527.511 317.558L527.002 316.697ZM582.234 284.019L581.724 283.158L581.724 283.158L582.234 284.019ZM582.997 281.043L582.137 281.552L582.137 281.552L582.997 281.043ZM580.021 280.279L579.512 279.419L579.512 279.419L580.021 280.279ZM527.77 311.194L526.77 311.198L526.777 312.943L528.279 312.054L527.77 311.194ZM527.67 287.256L527.153 286.4L526.668 286.694L526.67 287.261L527.67 287.256ZM581.928 254.492L581.412 253.636L581.412 253.636L581.928 254.492ZM582.665 251.509L581.809 252.026L581.809 252.026L582.665 251.509ZM579.682 250.772L579.165 249.916L579.165 249.916L579.682 250.772ZM527.649 282.193L526.649 282.197L526.657 283.961L528.166 283.049L527.649 282.193ZM527.523 251.996L527.006 251.141L526.521 251.434L526.523 252.001L527.523 251.996ZM580.867 219.73L581.385 220.586L580.867 219.73ZM581.911 217.732L580.913 217.675L580.91 217.735L580.913 217.795L581.911 217.732ZM580.868 215.748L580.35 216.603L580.35 216.603L580.868 215.748ZM525.743 182.355L525.196 183.192L525.211 183.202L525.225 183.211L525.743 182.355ZM525.163 182.088L525.444 181.128L525.444 181.128L525.163 182.088ZM523.881 182.106L524.189 183.058L524.191 183.057L523.881 182.106ZM523.408 182.325L523.906 183.192L523.92 183.184L523.933 183.176L523.408 182.325ZM575.765 217.738L576.283 218.593L577.697 217.738L576.284 216.882L575.765 217.738ZM524.521 186.695L525.04 185.84L524.535 185.535L524.024 185.828L524.521 186.695ZM524.223 248.914L524.741 249.77L524.741 249.77L524.223 248.914ZM523.178 250.903L524.176 250.965L524.18 250.905L524.177 250.844L523.178 250.903ZM523.174 251.049L522.174 251.053L522.174 251.053L523.174 251.049ZM523.243 267.687L522.676 268.51L524.251 269.597L524.243 267.683L523.243 267.687ZM475.073 234.461L474.506 235.285L474.506 235.285L475.073 234.461ZM474.345 234.136H473.345V234.926L474.113 235.109L474.345 234.136ZM474.345 215.477L473.848 214.609L473.345 214.898V215.477H474.345ZM491.621 205.567L492.148 204.718L491.641 204.403L491.123 204.7L491.621 205.567ZM523.656 225.442L523.129 226.292L523.129 226.292L523.656 225.442ZM526.647 224.741L527.497 225.269L527.497 225.269L526.647 224.741ZM525.947 221.75L526.474 220.9L526.474 220.9L525.947 221.75ZM495.904 203.111L495.406 202.243L493.953 203.077L495.376 203.961L495.904 203.111ZM471 214.156C471 213.628 471.349 213.18 471.831 213.033L471.249 211.12C469.948 211.515 469 212.723 469 214.156H471ZM471 248.942V214.156H469V248.942H471ZM471 282.242V248.942H469V282.242H471ZM472.173 283.415C471.525 283.415 471 282.89 471 282.242H469C469 283.994 470.42 285.415 472.173 285.415V283.415ZM473.345 282.242C473.345 282.89 472.82 283.415 472.173 283.415V285.415C473.925 285.415 475.345 283.994 475.345 282.242H473.345ZM473.345 248.942V282.242H475.345V248.942H473.345ZM473.345 239.238V248.942H475.345V239.238H473.345ZM523.833 272.157L474.913 238.415L473.777 240.061L522.698 273.804L523.833 272.157ZM524.44 314.727L524.266 272.976L522.266 272.985L522.44 314.735L524.44 314.727ZM525.283 315.848C524.797 315.706 524.442 315.257 524.44 314.727L522.44 314.735C522.446 316.176 523.41 317.386 524.724 317.768L525.283 315.848ZM526.493 315.836C526.153 316.038 525.752 316.048 525.413 315.896L524.594 317.72C525.5 318.128 526.588 318.104 527.511 317.558L526.493 315.836ZM581.724 283.158L526.493 315.836L527.511 317.558L582.743 284.88L581.724 283.158ZM582.137 281.552C582.466 282.109 582.282 282.829 581.724 283.158L582.743 284.88C584.251 283.987 584.75 282.042 583.858 280.534L582.137 281.552ZM580.53 281.14C581.088 280.81 581.807 280.995 582.137 281.552L583.858 280.534C582.966 279.026 581.02 278.527 579.512 279.419L580.53 281.14ZM528.279 312.054L580.53 281.14L579.512 279.419L527.261 310.333L528.279 312.054ZM526.67 287.261L526.77 311.198L528.77 311.19L528.67 287.252L526.67 287.261ZM581.412 253.636L527.153 286.4L528.187 288.112L582.445 255.348L581.412 253.636ZM581.809 252.026C582.144 252.581 581.966 253.301 581.412 253.636L582.445 255.348C583.945 254.442 584.427 252.492 583.521 250.992L581.809 252.026ZM580.199 251.629C580.754 251.294 581.474 251.472 581.809 252.026L583.521 250.992C582.616 249.492 580.665 249.011 579.165 249.916L580.199 251.629ZM528.166 283.049L580.199 251.629L579.165 249.916L527.132 281.337L528.166 283.049ZM526.523 252.001L526.649 282.197L528.649 282.189L528.523 251.992L526.523 252.001ZM580.35 218.874L527.006 251.141L528.041 252.852L581.385 220.586L580.35 218.874ZM580.913 217.795C580.94 218.22 580.735 218.641 580.35 218.874L581.385 220.586C582.433 219.952 582.981 218.809 582.909 217.67L580.913 217.795ZM580.35 216.603C580.733 216.836 580.937 217.253 580.913 217.675L582.91 217.79C582.975 216.657 582.427 215.524 581.386 214.893L580.35 216.603ZM525.225 183.211L580.35 216.603L581.386 214.893L526.262 181.5L525.225 183.211ZM524.882 183.048C524.993 183.08 525.099 183.129 525.196 183.192L526.291 181.519C526.028 181.346 525.742 181.215 525.444 181.128L524.882 183.048ZM524.191 183.057C524.417 182.983 524.658 182.982 524.882 183.048L525.444 181.128C524.844 180.953 524.191 180.953 523.571 181.156L524.191 183.057ZM523.933 183.176C524.014 183.126 524.099 183.087 524.189 183.058L523.573 181.155C523.333 181.233 523.101 181.339 522.883 181.474L523.933 183.176ZM472.038 212.944L523.906 183.192L522.911 181.457L471.043 211.209L472.038 212.944ZM576.284 216.882L525.04 185.84L524.003 187.551L575.247 218.593L576.284 216.882ZM524.741 249.77L576.283 218.593L575.248 216.882L523.705 248.059L524.741 249.77ZM524.177 250.844C524.152 250.421 524.356 250.003 524.741 249.77L523.705 248.059C522.661 248.69 522.113 249.828 522.18 250.962L524.177 250.844ZM524.174 251.045C524.174 251.018 524.175 250.991 524.176 250.965L522.18 250.842C522.176 250.912 522.174 250.982 522.174 251.053L524.174 251.045ZM524.243 267.683L524.174 251.045L522.174 251.053L522.244 267.691L524.243 267.683ZM474.506 235.285L522.676 268.51L523.811 266.864L475.641 233.638L474.506 235.285ZM474.113 235.109C474.248 235.141 474.381 235.199 474.506 235.285L475.641 233.638C475.31 233.41 474.949 233.252 474.578 233.164L474.113 235.109ZM473.345 215.477V234.136H475.345V215.477H473.345ZM491.123 204.7L473.848 214.609L474.843 216.344L492.119 206.435L491.123 204.7ZM524.183 224.592L492.148 204.718L491.094 206.417L523.129 226.292L524.183 224.592ZM525.798 224.214C525.456 224.765 524.733 224.934 524.183 224.592L523.129 226.292C524.618 227.216 526.573 226.758 527.497 225.269L525.798 224.214ZM525.419 222.6C525.97 222.941 526.139 223.664 525.798 224.214L527.497 225.269C528.421 223.78 527.963 221.824 526.474 220.9L525.419 222.6ZM495.376 203.961L525.419 222.6L526.474 220.9L496.431 202.261L495.376 203.961ZM524.024 185.828L495.406 202.243L496.401 203.978L525.019 187.563L524.024 185.828Z" fill="black"/>
</g>
<defs>
<filter id="filter0_d_229_234" x="765.081" y="-24.707" width="268.39" height="268.391" filterUnits="userSpaceOnUse" color-interpolation-filters="sRGB">
<feFlood flood-opacity="0" result="BackgroundImageFix"/>
<feColorMatrix in="SourceAlpha" type="matrix" values="0 0 0 0 0 0 0 0 0 0 0 0 0 0 0 0 0 0 127 0" result="hardAlpha"/>
<feOffset dx="8" dy="8"/>
<feGaussianBlur stdDeviation="32.5"/>
<feComposite in2="hardAlpha" operator="out"/>
<feColorMatrix type="matrix" values="0 0 0 0 1 0 0 0 0 1 0 0 0 0 1 0 0 0 0.25 0"/>
<feBlend mode="normal" in2="BackgroundImageFix" result="effect1_dropShadow_229_234"/>
<feBlend mode="normal" in="SourceGraphic" in2="effect1_dropShadow_229_234" result="shape"/>
</filter>
<filter id="filter1_d_229_234" x="-139" y="-107.678" width="324.455" height="324.455" filterUnits="userSpaceOnUse" color-interpolation-filters="sRGB">
<feFlood flood-opacity="0" result="BackgroundImageFix"/>
<feColorMatrix in="SourceAlpha" type="matrix" values="0 0 0 0 0 0 0 0 0 0 0 0 0 0 0 0 0 0 127 0" result="hardAlpha"/>
<feOffset dx="8" dy="8"/>
<feGaussianBlur stdDeviation="37.5"/>
<feComposite in2="hardAlpha" operator="out"/>
<feColorMatrix type="matrix" values="0 0 0 0 1 0 0 0 0 1 0 0 0 0 1 0 0 0 0.25 0"/>
<feBlend mode="normal" in2="BackgroundImageFix" result="effect1_dropShadow_229_234"/>
<feBlend mode="normal" in="SourceGraphic" in2="effect1_dropShadow_229_234" result="shape"/>
</filter>
<filter id="filter2_d_229_234" x="-9.90039" y="439.107" width="215.55" height="215.551" filterUnits="userSpaceOnUse" color-interpolation-filters="sRGB">
<feFlood flood-opacity="0" result="BackgroundImageFix"/>
<feColorMatrix in="SourceAlpha" type="matrix" values="0 0 0 0 0 0 0 0 0 0 0 0 0 0 0 0 0 0 127 0" result="hardAlpha"/>
<feOffset dx="8" dy="8"/>
<feGaussianBlur stdDeviation="32.5"/>
<feComposite in2="hardAlpha" operator="out"/>
<feColorMatrix type="matrix" values="0 0 0 0 1 0 0 0 0 1 0 0 0 0 1 0 0 0 0.25 0"/>
<feBlend mode="normal" in2="BackgroundImageFix" result="effect1_dropShadow_229_234"/>
<feBlend mode="normal" in="SourceGraphic" in2="effect1_dropShadow_229_234" result="shape"/>
</filter>
<filter id="filter3_d_229_234" x="306" y="268" width="229" height="229" filterUnits="userSpaceOnUse" color-interpolation-filters="sRGB">
<feFlood flood-opacity="0" result="BackgroundImageFix"/>
<feColorMatrix in="SourceAlpha" type="matrix" values="0 0 0 0 0 0 0 0 0 0 0 0 0 0 0 0 0 0 127 0" result="hardAlpha"/>
<feOffset dx="8" dy="8"/>
<feGaussianBlur stdDeviation="32.5"/>
<feComposite in2="hardAlpha" operator="out"/>
<feColorMatrix type="matrix" values="0 0 0 0 1 0 0 0 0 1 0 0 0 0 1 0 0 0 0.25 0"/>
<feBlend mode="normal" in2="BackgroundImageFix" result="effect1_dropShadow_229_234"/>
<feBlend mode="normal" in="SourceGraphic" in2="effect1_dropShadow_229_234" result="shape"/>
</filter>
<filter id="filter4_d_229_234" x="1365" y="209" width="249" height="249" filterUnits="userSpaceOnUse" color-interpolation-filters="sRGB">
<feFlood flood-opacity="0" result="BackgroundImageFix"/>
<feColorMatrix in="SourceAlpha" type="matrix" values="0 0 0 0 0 0 0 0 0 0 0 0 0 0 0 0 0 0 127 0" result="hardAlpha"/>
<feOffset dx="8" dy="8"/>
<feGaussianBlur stdDeviation="32.5"/>
<feComposite in2="hardAlpha" operator="out"/>
<feColorMatrix type="matrix" values="0 0 0 0 1 0 0 0 0 1 0 0 0 0 1 0 0 0 0.25 0"/>
<feBlend mode="normal" in2="BackgroundImageFix" result="effect1_dropShadow_229_234"/>
<feBlend mode="normal" in="SourceGraphic" in2="effect1_dropShadow_229_234" result="shape"/>
</filter>
<filter id="filter5_d_229_234" x="30.3574" y="263.814" width="159.355" height="159.355" filterUnits="userSpaceOnUse" color-interpolation-filters="sRGB">
<feFlood flood-opacity="0" result="BackgroundImageFix"/>
<feColorMatrix in="SourceAlpha" type="matrix" values="0 0 0 0 0 0 0 0 0 0 0 0 0 0 0 0 0 0 127 0" result="hardAlpha"/>
<feOffset dx="8" dy="8"/>
<feGaussianBlur stdDeviation="32.5"/>
<feComposite in2="hardAlpha" operator="out"/>
<feColorMatrix type="matrix" values="0 0 0 0 1 0 0 0 0 1 0 0 0 0 1 0 0 0 0.25 0"/>
<feBlend mode="normal" in2="BackgroundImageFix" result="effect1_dropShadow_229_234"/>
<feBlend mode="normal" in="SourceGraphic" in2="effect1_dropShadow_229_234" result="shape"/>
</filter>
<filter id="filter6_d_229_234" x="1000" y="414" width="257" height="257" filterUnits="userSpaceOnUse" color-interpolation-filters="sRGB">
<feFlood flood-opacity="0" result="BackgroundImageFix"/>
<feColorMatrix in="SourceAlpha" type="matrix" values="0 0 0 0 0 0 0 0 0 0 0 0 0 0 0 0 0 0 127 0" result="hardAlpha"/>
<feOffset dx="8" dy="8"/>
<feGaussianBlur stdDeviation="32.5"/>
<feComposite in2="hardAlpha" operator="out"/>
<feColorMatrix type="matrix" values="0 0 0 0 1 0 0 0 0 1 0 0 0 0 1 0 0 0 0.25 0"/>
<feBlend mode="normal" in2="BackgroundImageFix" result="effect1_dropShadow_229_234"/>
<feBlend mode="normal" in="SourceGraphic" in2="effect1_dropShadow_229_234" result="shape"/>
</filter>
<filter id="filter7_d_229_234" x="341" y="-72" width="173" height="173" filterUnits="userSpaceOnUse" color-interpolation-filters="sRGB">
<feFlood flood-opacity="0" result="BackgroundImageFix"/>
<feColorMatrix in="SourceAlpha" type="matrix" values="0 0 0 0 0 0 0 0 0 0 0 0 0 0 0 0 0 0 127 0" result="hardAlpha"/>
<feOffset dx="8" dy="8"/>
<feGaussianBlur stdDeviation="32.5"/>
<feComposite in2="hardAlpha" operator="out"/>
<feColorMatrix type="matrix" values="0 0 0 0 1 0 0 0 0 1 0 0 0 0 1 0 0 0 0.25 0"/>
<feBlend mode="normal" in2="BackgroundImageFix" result="effect1_dropShadow_229_234"/>
<feBlend mode="normal" in="SourceGraphic" in2="effect1_dropShadow_229_234" result="shape"/>
</filter>
<filter id="filter8_d_229_234" x="1492.26" y="-86.7734" width="245.744" height="245.744" filterUnits="userSpaceOnUse" color-interpolation-filters="sRGB">
<feFlood flood-opacity="0" result="BackgroundImageFix"/>
<feColorMatrix in="SourceAlpha" type="matrix" values="0 0 0 0 0 0 0 0 0 0 0 0 0 0 0 0 0 0 127 0" result="hardAlpha"/>
<feOffset dx="8" dy="8"/>
<feGaussianBlur stdDeviation="32.5"/>
<feComposite in2="hardAlpha" operator="out"/>
<feColorMatrix type="matrix" values="0 0 0 0 1 0 0 0 0 1 0 0 0 0 1 0 0 0 0.25 0"/>
<feBlend mode="normal" in2="BackgroundImageFix" result="effect1_dropShadow_229_234"/>
<feBlend mode="normal" in="SourceGraphic" in2="effect1_dropShadow_229_234" result="shape"/>
</filter>
<linearGradient id="paint0_linear_229_234" x1="1607.13" y1="565.722" x2="-1936.8" y2="565.722" gradientUnits="userSpaceOnUse">
<stop stop-color="#E2974B"/>
<stop offset="0.431158" stop-color="#7E8BC9"/>
<stop offset="1" stop-color="#857670"/>
</linearGradient>
<linearGradient id="paint1_linear_229_234" x1="960.471" y1="170.683" x2="1087.87" y2="-6.5079" gradientUnits="userSpaceOnUse">
<stop stop-color="#E2974B"/>
<stop offset="0.1875" stop-color="#7E8BC9"/>
<stop offset="1" stop-color="#857670"/>
</linearGradient>
<linearGradient id="paint2_linear_229_234" x1="102.455" y1="133.777" x2="-281.471" y2="133.777" gradientUnits="userSpaceOnUse">
<stop stop-color="#E2974B"/>
<stop offset="0.431158" stop-color="#7E8BC9"/>
<stop offset="1" stop-color="#857670"/>
</linearGradient>
<linearGradient id="paint3_linear_229_234" x1="132.65" y1="581.657" x2="-55.6217" y2="581.657" gradientUnits="userSpaceOnUse">
<stop stop-color="#E2974B"/>
<stop offset="0.1875" stop-color="#7E8BC9"/>
<stop offset="1" stop-color="#857670"/>
</linearGradient>
<linearGradient id="paint4_linear_229_234" x1="462" y1="424" x2="244.129" y2="424" gradientUnits="userSpaceOnUse">
<stop stop-color="#E2974B"/>
<stop offset="0.1875" stop-color="#7E8BC9"/>
<stop offset="1" stop-color="#857670"/>
</linearGradient>
<linearGradient id="paint5_linear_229_234" x1="1541" y1="385" x2="1279.11" y2="385" gradientUnits="userSpaceOnUse">
<stop stop-color="#E2974B"/>
<stop offset="0.1875" stop-color="#7E8BC9"/>
<stop offset="1" stop-color="#857670"/>
</linearGradient>
<linearGradient id="paint6_linear_229_234" x1="116.713" y1="350.17" x2="52.1099" y2="350.17" gradientUnits="userSpaceOnUse">
<stop stop-color="#E2974B"/>
<stop offset="0.1875" stop-color="#7E8BC9"/>
<stop offset="1" stop-color="#857670"/>
</linearGradient>
<linearGradient id="paint7_linear_229_234" x1="1184" y1="598" x2="904.509" y2="598" gradientUnits="userSpaceOnUse">
<stop stop-color="#E2974B"/>
<stop offset="0.1875" stop-color="#7E8BC9"/>
<stop offset="1" stop-color="#857670"/>
</linearGradient>
<linearGradient id="paint8_linear_229_234" x1="441" y1="28" x2="346.369" y2="28" gradientUnits="userSpaceOnUse">
<stop stop-color="#E2974B"/>
<stop offset="0.1875" stop-color="#7E8BC9"/>
<stop offset="1" stop-color="#857670"/>
</linearGradient>
<linearGradient id="paint9_linear_229_234" x1="1665" y1="85.9707" x2="1410.28" y2="85.9707" gradientUnits="userSpaceOnUse">
<stop stop-color="#E2974B"/>
<stop offset="0.1875" stop-color="#7E8BC9"/>
<stop offset="1" stop-color="#857670"/>
</linearGradient>
<clipPath id="clip0_229_234">
<rect width="1500" height="500" fill="white"/>
</clipPath>
</defs>
</svg>
